<mxfile host="app.diagrams.net" modified="2024-03-19T09:02:04.336Z" agent="Mozilla/5.0 (Windows NT 10.0; Win64; x64) AppleWebKit/537.36 (KHTML, like Gecko) Chrome/122.0.0.0 Safari/537.36" etag="NFLu3woMX5lhTX0J5Lkx" version="23.0.2" type="github">
  <diagram name="第 1 页" id="MXu5A3myGH0WYNJrRB6p">
    <mxGraphModel dx="1912" dy="1040" grid="1" gridSize="10" guides="1" tooltips="1" connect="1" arrows="1" fold="1" page="1" pageScale="1" pageWidth="3300" pageHeight="4681" math="0" shadow="0">
      <root>
        <mxCell id="0" />
        <mxCell id="1" parent="0" />
        <mxCell id="Bj3_nI4Z__DHs_qNz_qp-6" value="" style="edgeStyle=orthogonalEdgeStyle;rounded=0;orthogonalLoop=1;jettySize=auto;html=1;entryX=0.5;entryY=0;entryDx=0;entryDy=0;entryPerimeter=0;" edge="1" parent="1" target="Bj3_nI4Z__DHs_qNz_qp-10">
          <mxGeometry relative="1" as="geometry">
            <mxPoint x="219.94000000000028" y="200" as="sourcePoint" />
            <mxPoint x="219.94000000000005" y="250" as="targetPoint" />
          </mxGeometry>
        </mxCell>
        <mxCell id="Bj3_nI4Z__DHs_qNz_qp-12" value="" style="edgeStyle=orthogonalEdgeStyle;rounded=0;orthogonalLoop=1;jettySize=auto;html=1;" edge="1" parent="1" source="Bj3_nI4Z__DHs_qNz_qp-10" target="Bj3_nI4Z__DHs_qNz_qp-11">
          <mxGeometry relative="1" as="geometry" />
        </mxCell>
        <mxCell id="Bj3_nI4Z__DHs_qNz_qp-10" value="获取Intruce_code" style="strokeWidth=2;html=1;shape=mxgraph.flowchart.decision;whiteSpace=wrap;fillColor=#dae8fc;strokeColor=#6c8ebf;" vertex="1" parent="1">
          <mxGeometry x="149.91" y="280" width="140.06" height="80" as="geometry" />
        </mxCell>
        <mxCell id="Bj3_nI4Z__DHs_qNz_qp-76" style="edgeStyle=orthogonalEdgeStyle;rounded=0;orthogonalLoop=1;jettySize=auto;html=1;exitX=0.5;exitY=1;exitDx=0;exitDy=0;" edge="1" parent="1" source="Bj3_nI4Z__DHs_qNz_qp-11" target="Bj3_nI4Z__DHs_qNz_qp-75">
          <mxGeometry relative="1" as="geometry" />
        </mxCell>
        <mxCell id="Bj3_nI4Z__DHs_qNz_qp-11" value="查询对应的code码的箱子" style="whiteSpace=wrap;html=1;strokeWidth=2;fillColor=#d5e8d4;strokeColor=#82b366;rounded=1;glass=0;shadow=0;" vertex="1" parent="1">
          <mxGeometry x="134.89" y="420" width="170.09" height="60" as="geometry" />
        </mxCell>
        <mxCell id="Bj3_nI4Z__DHs_qNz_qp-17" value="" style="edgeStyle=orthogonalEdgeStyle;rounded=0;orthogonalLoop=1;jettySize=auto;html=1;exitX=0.5;exitY=1;exitDx=0;exitDy=0;exitPerimeter=0;entryX=0.5;entryY=0;entryDx=0;entryDy=0;" edge="1" parent="1" source="Bj3_nI4Z__DHs_qNz_qp-23" target="Bj3_nI4Z__DHs_qNz_qp-24">
          <mxGeometry relative="1" as="geometry">
            <mxPoint x="220" y="780" as="sourcePoint" />
            <mxPoint x="219.99882352941177" y="880" as="targetPoint" />
          </mxGeometry>
        </mxCell>
        <mxCell id="Bj3_nI4Z__DHs_qNz_qp-18" value="返回箱子结果" style="strokeWidth=2;html=1;shape=mxgraph.flowchart.terminator;whiteSpace=wrap;direction=west;fillColor=#fff2cc;strokeColor=#d6b656;" vertex="1" parent="1">
          <mxGeometry x="169.94000000000005" y="960" width="100" height="60" as="geometry" />
        </mxCell>
        <mxCell id="Bj3_nI4Z__DHs_qNz_qp-23" value="有对应code的箱子" style="strokeWidth=2;html=1;shape=mxgraph.flowchart.decision;whiteSpace=wrap;fillColor=#dae8fc;strokeColor=#6c8ebf;" vertex="1" parent="1">
          <mxGeometry x="149.91" y="660" width="140.06" height="80" as="geometry" />
        </mxCell>
        <mxCell id="Bj3_nI4Z__DHs_qNz_qp-24" value="插入箱子列表index 0" style="whiteSpace=wrap;html=1;strokeWidth=2;fillColor=#d5e8d4;strokeColor=#82b366;rounded=1;glass=0;shadow=0;" vertex="1" parent="1">
          <mxGeometry x="129.94" y="800" width="180.06" height="60" as="geometry" />
        </mxCell>
        <mxCell id="Bj3_nI4Z__DHs_qNz_qp-26" style="edgeStyle=orthogonalEdgeStyle;rounded=0;orthogonalLoop=1;jettySize=auto;html=1;entryX=1;entryY=0.5;entryDx=0;entryDy=0;entryPerimeter=0;exitX=0;exitY=0.5;exitDx=0;exitDy=0;exitPerimeter=0;" edge="1" parent="1" source="Bj3_nI4Z__DHs_qNz_qp-10" target="Bj3_nI4Z__DHs_qNz_qp-18">
          <mxGeometry relative="1" as="geometry">
            <mxPoint x="239.8800000000001" y="290" as="sourcePoint" />
            <mxPoint x="279.8800000000001" y="980" as="targetPoint" />
            <Array as="points">
              <mxPoint x="90" y="320" />
              <mxPoint x="90" y="990" />
            </Array>
          </mxGeometry>
        </mxCell>
        <mxCell id="Bj3_nI4Z__DHs_qNz_qp-27" style="edgeStyle=orthogonalEdgeStyle;rounded=0;orthogonalLoop=1;jettySize=auto;html=1;entryX=0;entryY=0.5;entryDx=0;entryDy=0;entryPerimeter=0;exitX=1;exitY=0.5;exitDx=0;exitDy=0;exitPerimeter=0;" edge="1" parent="1" source="Bj3_nI4Z__DHs_qNz_qp-23" target="Bj3_nI4Z__DHs_qNz_qp-18">
          <mxGeometry relative="1" as="geometry">
            <Array as="points">
              <mxPoint x="340" y="700" />
              <mxPoint x="340" y="990" />
            </Array>
          </mxGeometry>
        </mxCell>
        <mxCell id="Bj3_nI4Z__DHs_qNz_qp-33" value="首页列表" style="strokeWidth=2;html=1;shape=mxgraph.flowchart.terminator;whiteSpace=wrap;direction=west;fillColor=#fff2cc;strokeColor=#d6b656;" vertex="1" parent="1">
          <mxGeometry x="169.94000000000005" y="140" width="100" height="60" as="geometry" />
        </mxCell>
        <mxCell id="Bj3_nI4Z__DHs_qNz_qp-37" value="" style="edgeStyle=orthogonalEdgeStyle;rounded=0;orthogonalLoop=1;jettySize=auto;html=1;" edge="1" parent="1" source="Bj3_nI4Z__DHs_qNz_qp-34" target="Bj3_nI4Z__DHs_qNz_qp-35">
          <mxGeometry relative="1" as="geometry" />
        </mxCell>
        <mxCell id="Bj3_nI4Z__DHs_qNz_qp-34" value="0元订单" style="strokeWidth=2;html=1;shape=mxgraph.flowchart.terminator;whiteSpace=wrap;direction=west;fillColor=#fff2cc;strokeColor=#d6b656;" vertex="1" parent="1">
          <mxGeometry x="1110" y="110" width="100" height="60" as="geometry" />
        </mxCell>
        <mxCell id="Bj3_nI4Z__DHs_qNz_qp-39" value="" style="edgeStyle=orthogonalEdgeStyle;rounded=0;orthogonalLoop=1;jettySize=auto;html=1;" edge="1" parent="1" source="Bj3_nI4Z__DHs_qNz_qp-35">
          <mxGeometry relative="1" as="geometry">
            <mxPoint x="1160" y="390" as="targetPoint" />
          </mxGeometry>
        </mxCell>
        <mxCell id="Bj3_nI4Z__DHs_qNz_qp-35" value="获取Intruce_code" style="strokeWidth=2;html=1;shape=mxgraph.flowchart.decision;whiteSpace=wrap;fillColor=#dae8fc;strokeColor=#6c8ebf;" vertex="1" parent="1">
          <mxGeometry x="1070" y="220" width="180" height="80" as="geometry" />
        </mxCell>
        <mxCell id="Bj3_nI4Z__DHs_qNz_qp-45" value="" style="edgeStyle=orthogonalEdgeStyle;rounded=0;orthogonalLoop=1;jettySize=auto;html=1;" edge="1" parent="1" source="Bj3_nI4Z__DHs_qNz_qp-41" target="Bj3_nI4Z__DHs_qNz_qp-44">
          <mxGeometry relative="1" as="geometry" />
        </mxCell>
        <mxCell id="Bj3_nI4Z__DHs_qNz_qp-41" value="是否参与过活动" style="strokeWidth=2;html=1;shape=mxgraph.flowchart.decision;whiteSpace=wrap;fillColor=#dae8fc;strokeColor=#6c8ebf;" vertex="1" parent="1">
          <mxGeometry x="1070" y="350" width="180" height="80" as="geometry" />
        </mxCell>
        <mxCell id="Bj3_nI4Z__DHs_qNz_qp-47" value="" style="edgeStyle=orthogonalEdgeStyle;rounded=0;orthogonalLoop=1;jettySize=auto;html=1;" edge="1" parent="1" source="Bj3_nI4Z__DHs_qNz_qp-44" target="Bj3_nI4Z__DHs_qNz_qp-46">
          <mxGeometry relative="1" as="geometry" />
        </mxCell>
        <mxCell id="Bj3_nI4Z__DHs_qNz_qp-44" value="抽奖" style="whiteSpace=wrap;html=1;strokeWidth=2;fillColor=#d5e8d4;strokeColor=#82b366;perimeterSpacing=1;rounded=1;glass=0;shadow=0;" vertex="1" parent="1">
          <mxGeometry x="1070" y="480" width="180" height="60" as="geometry" />
        </mxCell>
        <mxCell id="Bj3_nI4Z__DHs_qNz_qp-52" style="edgeStyle=orthogonalEdgeStyle;rounded=0;orthogonalLoop=1;jettySize=auto;html=1;entryX=0.5;entryY=0;entryDx=0;entryDy=0;" edge="1" parent="1" source="Bj3_nI4Z__DHs_qNz_qp-46">
          <mxGeometry relative="1" as="geometry">
            <mxPoint x="810" y="800" as="targetPoint" />
          </mxGeometry>
        </mxCell>
        <mxCell id="Bj3_nI4Z__DHs_qNz_qp-53" style="edgeStyle=orthogonalEdgeStyle;rounded=0;orthogonalLoop=1;jettySize=auto;html=1;entryX=0.5;entryY=0;entryDx=0;entryDy=0;" edge="1" parent="1" source="Bj3_nI4Z__DHs_qNz_qp-46" target="Bj3_nI4Z__DHs_qNz_qp-49">
          <mxGeometry relative="1" as="geometry" />
        </mxCell>
        <mxCell id="Bj3_nI4Z__DHs_qNz_qp-54" style="edgeStyle=orthogonalEdgeStyle;rounded=0;orthogonalLoop=1;jettySize=auto;html=1;" edge="1" parent="1" source="Bj3_nI4Z__DHs_qNz_qp-46" target="Bj3_nI4Z__DHs_qNz_qp-50">
          <mxGeometry relative="1" as="geometry" />
        </mxCell>
        <mxCell id="Bj3_nI4Z__DHs_qNz_qp-55" style="edgeStyle=orthogonalEdgeStyle;rounded=0;orthogonalLoop=1;jettySize=auto;html=1;entryX=0.5;entryY=0;entryDx=0;entryDy=0;" edge="1" parent="1" source="Bj3_nI4Z__DHs_qNz_qp-46" target="Bj3_nI4Z__DHs_qNz_qp-51">
          <mxGeometry relative="1" as="geometry" />
        </mxCell>
        <mxCell id="Bj3_nI4Z__DHs_qNz_qp-46" value="赠品类型" style="strokeWidth=2;html=1;shape=mxgraph.flowchart.decision;whiteSpace=wrap;fillColor=#dae8fc;strokeColor=#6c8ebf;perimeterSpacing=1;" vertex="1" parent="1">
          <mxGeometry x="1070" y="650" width="180" height="80" as="geometry" />
        </mxCell>
        <mxCell id="Bj3_nI4Z__DHs_qNz_qp-59" value="" style="edgeStyle=orthogonalEdgeStyle;rounded=0;orthogonalLoop=1;jettySize=auto;html=1;" edge="1" parent="1" target="Bj3_nI4Z__DHs_qNz_qp-58">
          <mxGeometry relative="1" as="geometry">
            <mxPoint x="810" y="860" as="sourcePoint" />
            <Array as="points">
              <mxPoint x="810" y="990" />
            </Array>
          </mxGeometry>
        </mxCell>
        <mxCell id="Bj3_nI4Z__DHs_qNz_qp-48" value="赠品 写入结果表" style="whiteSpace=wrap;html=1;strokeWidth=2;fillColor=#d5e8d4;strokeColor=#82b366;rounded=1;glass=0;shadow=0;" vertex="1" parent="1">
          <mxGeometry x="720" y="800" width="180" height="60" as="geometry" />
        </mxCell>
        <mxCell id="Bj3_nI4Z__DHs_qNz_qp-49" value="金币 随机值限定范围" style="whiteSpace=wrap;html=1;strokeWidth=2;fillColor=#d5e8d4;strokeColor=#82b366;rounded=1;glass=0;shadow=0;" vertex="1" parent="1">
          <mxGeometry x="960" y="800" width="180" height="60" as="geometry" />
        </mxCell>
        <mxCell id="Bj3_nI4Z__DHs_qNz_qp-50" value="魂晶 随机限制范围" style="whiteSpace=wrap;html=1;strokeWidth=2;fillColor=#d5e8d4;strokeColor=#82b366;rounded=1;glass=0;shadow=0;" vertex="1" parent="1">
          <mxGeometry x="1200" y="800" width="180" height="60" as="geometry" />
        </mxCell>
        <mxCell id="Bj3_nI4Z__DHs_qNz_qp-62" style="edgeStyle=orthogonalEdgeStyle;rounded=0;orthogonalLoop=1;jettySize=auto;html=1;" edge="1" parent="1" source="Bj3_nI4Z__DHs_qNz_qp-51" target="Bj3_nI4Z__DHs_qNz_qp-58">
          <mxGeometry relative="1" as="geometry">
            <Array as="points">
              <mxPoint x="1530" y="990" />
            </Array>
          </mxGeometry>
        </mxCell>
        <mxCell id="Bj3_nI4Z__DHs_qNz_qp-51" value="优惠券 发放优惠券" style="whiteSpace=wrap;html=1;strokeWidth=2;fillColor=#d5e8d4;strokeColor=#82b366;rounded=1;glass=0;shadow=0;" vertex="1" parent="1">
          <mxGeometry x="1440" y="800" width="180" height="60" as="geometry" />
        </mxCell>
        <mxCell id="Bj3_nI4Z__DHs_qNz_qp-58" value="结束" style="strokeWidth=2;html=1;shape=mxgraph.flowchart.terminator;whiteSpace=wrap;direction=west;fillColor=#fff2cc;strokeColor=#d6b656;" vertex="1" parent="1">
          <mxGeometry x="1110" y="960" width="100" height="60" as="geometry" />
        </mxCell>
        <mxCell id="Bj3_nI4Z__DHs_qNz_qp-60" style="edgeStyle=orthogonalEdgeStyle;rounded=0;orthogonalLoop=1;jettySize=auto;html=1;entryX=0.5;entryY=1;entryDx=0;entryDy=0;entryPerimeter=0;" edge="1" parent="1" source="Bj3_nI4Z__DHs_qNz_qp-49" target="Bj3_nI4Z__DHs_qNz_qp-58">
          <mxGeometry relative="1" as="geometry" />
        </mxCell>
        <mxCell id="Bj3_nI4Z__DHs_qNz_qp-61" style="edgeStyle=orthogonalEdgeStyle;rounded=0;orthogonalLoop=1;jettySize=auto;html=1;entryX=0.5;entryY=1;entryDx=0;entryDy=0;entryPerimeter=0;" edge="1" parent="1" source="Bj3_nI4Z__DHs_qNz_qp-50" target="Bj3_nI4Z__DHs_qNz_qp-58">
          <mxGeometry relative="1" as="geometry" />
        </mxCell>
        <mxCell id="Bj3_nI4Z__DHs_qNz_qp-71" value="&lt;div style=&quot;background-color: rgb(30, 31, 34); color: rgb(188, 190, 196); font-family: &amp;quot;JetBrains Mono&amp;quot;, monospace; font-size: 9.8pt;&quot;&gt;&lt;span style=&quot;color:#6aab73;&quot;&gt;v3/getHomeCaseList&lt;/span&gt;&lt;/div&gt;" style="text;whiteSpace=wrap;html=1;" vertex="1" parent="1">
          <mxGeometry x="230" y="210" width="160" height="40" as="geometry" />
        </mxCell>
        <mxCell id="Bj3_nI4Z__DHs_qNz_qp-73" style="edgeStyle=orthogonalEdgeStyle;rounded=0;orthogonalLoop=1;jettySize=auto;html=1;entryX=0.5;entryY=1;entryDx=0;entryDy=0;entryPerimeter=0;" edge="1" parent="1" source="Bj3_nI4Z__DHs_qNz_qp-24" target="Bj3_nI4Z__DHs_qNz_qp-18">
          <mxGeometry relative="1" as="geometry" />
        </mxCell>
        <mxCell id="Bj3_nI4Z__DHs_qNz_qp-78" style="edgeStyle=orthogonalEdgeStyle;rounded=0;orthogonalLoop=1;jettySize=auto;html=1;" edge="1" parent="1" source="Bj3_nI4Z__DHs_qNz_qp-75">
          <mxGeometry relative="1" as="geometry">
            <mxPoint x="280" y="990" as="targetPoint" />
            <Array as="points">
              <mxPoint x="420" y="570" />
              <mxPoint x="420" y="990" />
            </Array>
          </mxGeometry>
        </mxCell>
        <mxCell id="Bj3_nI4Z__DHs_qNz_qp-75" value="是否参与过活动" style="strokeWidth=2;html=1;shape=mxgraph.flowchart.decision;whiteSpace=wrap;fillColor=#dae8fc;strokeColor=#6c8ebf;" vertex="1" parent="1">
          <mxGeometry x="149.91" y="530" width="140.06" height="80" as="geometry" />
        </mxCell>
        <mxCell id="Bj3_nI4Z__DHs_qNz_qp-77" style="edgeStyle=orthogonalEdgeStyle;rounded=0;orthogonalLoop=1;jettySize=auto;html=1;entryX=0.5;entryY=0;entryDx=0;entryDy=0;entryPerimeter=0;" edge="1" parent="1" source="Bj3_nI4Z__DHs_qNz_qp-75" target="Bj3_nI4Z__DHs_qNz_qp-23">
          <mxGeometry relative="1" as="geometry" />
        </mxCell>
      </root>
    </mxGraphModel>
  </diagram>
</mxfile>
